<svg height="512" viewBox="0 0 96 96" width="512" xmlns="http://www.w3.org/2000/svg"><g id="Layer_4"><g><path d="m73.127 72.186-26.439 4.706c-.062.012-.121-.007-.183-.001-.047.004-.085.029-.132.03l-10.998.277c-.018 0-.035 0-.056 0-1.141 0-2.082-.908-2.111-2.058-.029-1.168.894-2.135 2.061-2.164l10.688-.269 3.17-.999c1.132-.725 2.028-2.205 2.028-3.868 0-1.291-.507-2.506-1.424-3.42-.908-.908-2.129-1.409-3.447-1.409h-23.605v23.523l18.136 3.627c.315.059.578.077.772.053.05-.018.51-.13.561-.141l32.557-8.256c2.792-.507 4.559-3.043 4.09-5.69-.47-2.614-2.976-4.354-5.668-3.941z"/><path d="m6.073 92h12.377v-3.733-25.256h-12.377z"/><path d="m63.182 28.16c-.395.389-.926.602-1.474.602-.085 0-.174 0-.259-.012-.637-.083-1.206-.442-1.542-.991l-3.544-5.761c-.61-.997-.301-2.3.693-2.907.991-.613 2.294-.307 2.907.69l2.161 3.509 7.012-6.842c-2.023-1.897-4.721-3.083-7.705-3.083-6.233 0-11.301 5.071-11.301 11.304s5.068 11.304 11.301 11.304c6.23 0 11.299-5.071 11.299-11.304 0-1.708-.41-3.311-1.088-4.764z"/><path d="m82.983 4h-42.794c-3.83 0-6.943 3.119-6.943 6.947v26.908c0 3.827 3.113 6.947 6.943 6.947h19.333c.537 0 1.053.201 1.445.566l14.182 13.286.77-.33v-11.412c0-1.168.947-2.111 2.114-2.111h4.95c3.83 0 6.944-3.12 6.944-6.947v-26.907c0-3.828-3.114-6.947-6.944-6.947zm-5.398 10.101-2.816 2.75c1.356 2.304 2.188 4.955 2.188 7.817 0 8.562-6.964 15.527-15.527 15.527-8.562 0-15.529-6.964-15.529-15.527 0-8.562 6.967-15.527 15.529-15.527 4.167 0 7.94 1.671 10.732 4.353l2.471-2.413c.831-.832 2.173-.802 2.989.035.815.833.8 2.172-.037 2.985z"/></g></g></svg>