<svg id="Bahan_copy_2" height="512" viewBox="0 0 64 64" width="512" xmlns="http://www.w3.org/2000/svg" data-name="Bahan copy 2"><g fill="rgb(0,0,0)"><path d="m33.42 56.71h-8.76a7.55849 7.55849 0 0 1 -2.1-.21 4.02472 4.02472 0 0 0 3.98 3.5h4.99a4.03477 4.03477 0 0 0 3.99-3.5 7.56093 7.56093 0 0 1 -2.1.21z"/><path d="m42.32 4.63a12.185 12.185 0 1 0 12.18 12.18 12.20371 12.20371 0 0 0 -12.18-12.18zm-.88 19.46a1.0002 1.0002 0 0 1 2 .00006 1.0002 1.0002 0 0 1 -2-.00006zm3.34-8.09a3.401 3.401 0 0 0 -1.46 2.89v1.39a1.00011 1.00011 0 0 1 -2 0v-1.39a5.42049 5.42049 0 0 1 2.38-4.58 2.58791 2.58791 0 1 0 -3.97-2.18 1.00012 1.00012 0 0 1 -2-.00008 4.59044 4.59044 0 1 1 7.05 3.87008z"/><path d="m19.21 50.02a5.04891 5.04891 0 0 0 5.04 4.69h9.58a5.04891 5.04891 0 0 0 5.04-4.69z"/><path d="m19.19 44.87v3.15c.30085-.002 19.7 0 19.7 0v-3.15z"/><path d="m42.67 30.99a14.17894 14.17894 0 0 1 -9.96-24.61 13.08336 13.08336 0 0 1 2.02-1.53 19.17483 19.17483 0 0 0 -3.46-.73c-11.34541-1.51062-21.95971 8.01841-21.76984 19.42016a19.51656 19.51656 0 0 0 6.63984 14.67984 8.963 8.963 0 0 1 2.79 4.65c.26059.01728 20.23 0 20.23 0a9.54 9.54 0 0 1 2.92-4.77 19.71734 19.71734 0 0 0 5.39-8.07 13.7311 13.7311 0 0 1 -4.8.96z"/></g></svg>