<svg id="Layer_2_00000148651498550338436600000007652232191917608622_" enable-background="new 0 0 512 512" height="512" viewBox="0 0 512 512" width="512" xmlns="http://www.w3.org/2000/svg"><g id="Icon"><g id="UserGear"><path d="m360.1 467.2h-312.7c-27.1 0-46.4-26.4-38.1-52.2l32.9-102.8c10.6-33 46.7-50.1 78.9-37.6 21.4 8.3 48.9 14.8 82.6 14.8s61.2-6.5 82.6-14.8c6.8-2.6 13.9-4 20.8-4.1l1.4.8c-.1 1.5-.1 2.9-.1 4.4s0 3 .1 4.4l-1.6.9c-16.1 9.3-21.7 30-12.4 46.1l11.8 20.4c6 10.4 17.2 16.9 29.3 16.9 5.9 0 11.8-1.6 16.9-4.5l1.6-.9c2.5 1.6 5 3 7.6 4.4v1.8c0 17.8 13.9 32.5 31.4 33.7l5.1 15.9c8.3 26-10.9 52.4-38.1 52.4z"/><circle cx="203.8" cy="147.9" r="103.1"/><path d="m497.7 298.4-13-7.5c1-4.9 1.5-10 1.5-15.2s-.5-10.3-1.5-15.2l13-7.5c6.6-3.8 8.9-12.2 5-18.8l-11.7-20.4c-3.8-6.6-12.2-8.9-18.8-5l-13 7.5c-7.6-6.6-16.5-11.8-26.3-15.2v-14.9c0-7.6-6.2-13.8-13.8-13.8h-23.6c-7.6 0-13.8 6.2-13.8 13.8v14.9c-9.8 3.3-18.7 8.5-26.3 15.2l-13-7.5c-6.6-3.8-15-1.6-18.8 5l-11.8 20.4c-3.8 6.6-1.5 15 5 18.8l12.9 7.5c-1 4.9-1.5 10-1.5 15.2s.5 10.3 1.5 15.2l-12.9 7.5c-6.6 3.8-8.9 12.2-5 18.8l11.8 20.4c3.8 6.6 12.2 8.9 18.8 5l13-7.5c7.6 6.6 16.5 11.8 26.3 15.2v15c0 7.6 6.2 13.8 13.8 13.8h23.6c7.6 0 13.8-6.2 13.8-13.8v-15c9.8-3.3 18.7-8.5 26.3-15.2l13 7.5c6.6 3.8 15 1.5 18.8-5l11.8-20.4c3.8-6.6 1.5-15-5.1-18.8zm-90.4 11.7c-19 0-34.3-15.4-34.3-34.3s15.4-34.3 34.3-34.3 34.3 15.4 34.3 34.3-15.3 34.3-34.3 34.3z"/></g></g></svg>