<svg id="a24c74f5-a39f-47b8-9d42-b9c6ea82ba6c" height="512" viewBox="0 0 64 64" width="512" xmlns="http://www.w3.org/2000/svg" data-name="gllyph"><path d="m56.15 7.6h-48.3a3.85807 3.85807 0 0 0 -3.85 3.85v3.92h56v-3.92a3.85807 3.85807 0 0 0 -3.85-3.85zm-44.68 5.35a1.47014 1.47014 0 0 1 0-2.94 1.47014 1.47014 0 0 1 0 2.94zm7.41 0a1.47016 1.47016 0 0 1 .00007-2.94 1.47016 1.47016 0 0 1 -.00007 2.94zm7.42 0a1.47014 1.47014 0 0 1 .00006-2.94 1.47014 1.47014 0 0 1 -.00006 2.94z"/><path d="m4 17.37v35.18a3.85805 3.85805 0 0 0 3.85 3.85h48.3a3.85805 3.85805 0 0 0 3.85-3.85v-35.18zm14.06 3.86a1.001 1.001 0 0 1 1.17-.98l12.77 2.26 12.77-2.26a.99239.99239 0 0 1 1.17.98v19.27a.98713.98713 0 0 1 -.72.96l-12.95 3.65a.93205.93205 0 0 1 -.54 0l-12.95-3.65a.98713.98713 0 0 1 -.72-.96zm30.64 30.13h-7.01a3.18647 3.18647 0 0 1 -6.04 0h-20.35a1.00012 1.00012 0 0 1 0-2h20.35a3.17726 3.17726 0 0 1 6.04 0h7.01a1.00011 1.00011 0 0 1 0 2z"/><path d="m43.94 39.74v-17.32l-10.94 1.94v13.28a1.00011 1.00011 0 0 1 -2 0v-13.28l-10.94-1.94v17.32l11.94 3.37zm-15.23-5.29-4.54 2.49a1.90919 1.90919 0 0 1 -2.81-1.7l.12-5.18a1.85844 1.85844 0 0 1 .98-1.62 1.87863 1.87863 0 0 1 1.89.04l4.43 2.69a1.90419 1.90419 0 0 1 -.07 3.28z"/><path d="m23.37 35.1 4.22-2.32-4.12-2.5z"/><path d="m38.67 49.17a1.18012 1.18012 0 0 0 0 2.36 1.18012 1.18012 0 0 0 0-2.36z"/></svg>