<svg id="Layer_2" enable-background="new 0 0 32 32" height="512" viewBox="0 0 32 32" width="512" xmlns="http://www.w3.org/2000/svg"><path d="m30.26881 9.93506c-.90088-1.06152-2.21582-1.67041-3.60742-1.67041h-5.15527v-3.03369c0-2.60889-2.12207-4.73096-4.73047-4.73096h-.28027c-1.15088 0-2.2417.54492-2.90625 1.44238l-5.30195 6.96588c-.31732-.14001-.66638-.22076-1.03497-.22076h-4.06739c-1.4209 0-2.57715 1.15625-2.57715 2.57715v15.93262c0 1.4209 1.15625 2.57666 2.57715 2.57666h4.06738c.86401 0 1.62567-.43085 2.09338-1.08533l3.13367 1.55652c1.65382.8208 3.5044 1.25488 5.35157 1.25488h6.6123c2.33984 0 4.30371-1.67334 4.66846-3.9751l2.21777-13.76904c.22559-1.36865-.16113-2.76172-1.06054-3.8208zm-23.43994 16.83887h-3.22119v-15.08643h3.22119zm21.53955-13.50049-2.21924 13.77783c-.13086.82568-.86426 1.44873-1.70606 1.44873h-6.6123c-1.38672 0-2.77588-.32568-4.01758-.94189l-3.98438-1.97864v-13.74243l6.15967-8.09387c.1128-.15235.30225-.24317.50684-.24317h.28027c.9541 0 1.73047.77637 1.73047 1.73096v4.53369c0 .82861.67139 1.5 1.5 1.5h6.65527c.5166 0 .98584.21729 1.32031.61133.33302.39257.47071.8872.38673 1.39746z"/></svg>