<svg fill='#3b82f6' id="Layer_2" enable-background="new 0 0 32 32" height="512" viewBox="0 0 32 32"
    width="512" xmlns="http://www.w3.org/2000/svg">
    <g>
        <path
            d="m16.78003.5h-.28003c-1.15997 0-2.25.53998-2.90997 1.44l-5.30005 6.96997c-.32001-.14001-.66998-.21997-1.03998-.21997h-4.07001c-1.41998 0-2.57001 1.14996-2.57001 2.57001v15.94c0 1.41998 1.15002 2.56995 2.57001 2.56995h4.07001c.87 0 1.63-.42999 2.09998-1.07996l3.13 1.56c1.65002.82001 3.5 1.25 5.35004 1.25h6.60998c2.34003 0 4.31-1.67004 4.66998-3.98004l2.22003-13.75995c.21997-1.37-.16003-2.77002-1.06-3.82001-.90001-1.07-2.22002-1.67999-3.61004-1.67999h-5.14996v-3.03003c0-2.60998-2.13001-4.72998-4.72998-4.72998zm-9.95001 26.26996h-3.22003v-15.07996h3.22003z" />
    </g>
</svg>